<svg width="98" height="32" viewBox="0 0 98 32" fill="none" xmlns="http://www.w3.org/2000/svg">
<g clip-path="url(#clip0)">
<path d="M94.4625 19.5565L97.1673 21.3602C96.2894 22.6535 94.1898 24.8725 90.5597 24.8725C86.0519 24.8725 82.6948 21.384 82.6948 16.9461C82.6948 12.2236 86.0875 9.01978 90.1801 9.01978C94.2964 9.01978 96.313 12.2946 96.9656 14.0626L97.3215 14.9645L86.7163 19.3548C87.5229 20.9449 88.7805 21.7518 90.5597 21.7518C92.3392 21.7518 93.5728 20.8737 94.4625 19.5565ZM86.1469 16.6971L93.2289 13.7543C92.8374 12.7695 91.675 12.0695 90.2868 12.0695C88.5194 12.0695 86.0639 13.6358 86.1469 16.6971Z" fill="#828282"/>
<path d="M77.582 0.939155H80.9983V24.1487H77.582V0.938965V0.939155Z" fill="#828282"/>
<path d="M72.1964 9.63682H75.4942V23.7334C75.4942 29.5831 72.0421 31.9919 67.9613 31.9919C64.1179 31.9919 61.8047 29.4052 60.9387 27.305L63.9636 26.0471C64.5092 27.3404 65.826 28.8713 67.9613 28.8713C70.5829 28.8713 72.1964 27.2456 72.1964 24.2081V23.069H72.0777C71.2947 24.0182 69.8 24.8724 67.902 24.8724C63.9398 24.8724 60.3097 21.4195 60.3097 16.97C60.3097 12.4964 63.9398 9.00806 67.902 9.00806C69.7882 9.00806 71.2947 9.85053 72.0777 10.7761H72.1964V9.63701V9.63682ZM72.4334 16.97C72.4334 14.1696 70.5711 12.1286 68.1985 12.1286C65.8022 12.1286 63.7856 14.1696 63.7856 16.97C63.7856 19.7345 65.8022 21.7399 68.1985 21.7399C70.5713 21.7519 72.4336 19.7345 72.4336 16.97H72.4334Z" fill="#828282"/>
<path d="M41.5549 16.9105C41.5549 21.4789 37.9962 24.8368 33.6306 24.8368C29.2653 24.8368 25.7064 21.4671 25.7064 16.9105C25.7064 12.3185 29.2653 8.97241 33.6306 8.97241C37.9962 8.97241 41.5549 12.3185 41.5549 16.9105ZM38.091 16.9105C38.091 14.0629 36.0268 12.1048 33.6306 12.1048C31.2345 12.1048 29.1703 14.0629 29.1703 16.9105C29.1703 19.7345 31.2345 21.7162 33.6306 21.7162C36.027 21.7162 38.091 19.7345 38.091 16.9105Z" fill="#828282"/>
<path d="M58.8626 16.9461C58.8626 21.5144 55.3037 24.8723 50.9384 24.8723C46.5728 24.8723 43.0141 21.5143 43.0141 16.9461C43.0141 12.3541 46.5728 9.01978 50.9384 9.01978C55.3037 9.01978 58.8626 12.3423 58.8626 16.9461ZM55.3868 16.9461C55.3868 14.0984 53.3227 12.1403 50.9264 12.1403C48.5302 12.1403 46.466 14.0984 46.466 16.9461C46.466 19.7701 48.5302 21.7518 50.9264 21.7518C53.3345 21.7518 55.3868 19.7583 55.3868 16.9461Z" fill="#828282"/>
<path d="M12.6812 21.3957C7.71065 21.3957 3.81984 17.3851 3.81984 12.4133C3.81984 7.44164 7.71065 3.43098 12.6812 3.43098C15.3622 3.43098 17.3194 4.48698 18.7667 5.83974L21.1512 3.45479C19.1346 1.52069 16.4417 0.0490723 12.6812 0.0490723C5.87207 0.0492627 0.142303 5.6026 0.142303 12.4133C0.142303 19.2243 5.87207 24.7775 12.6812 24.7775C16.3587 24.7775 19.1346 23.5672 21.3054 21.3127C23.5355 19.0818 24.2236 15.9493 24.2236 13.41C24.2236 12.615 24.1287 11.7963 24.0219 11.1912H12.6812V14.4898H20.7597C20.5224 16.5546 19.87 17.9666 18.9091 18.9275C17.7465 20.1024 15.908 21.3957 12.6812 21.3957Z" fill="#828282"/>
</g>
<defs>
<clipPath id="clip0">
<rect width="97.5" height="32" fill="white"/>
</clipPath>
</defs>
</svg>
