<svg width="77" height="32" viewBox="0 0 77 32" fill="none" xmlns="http://www.w3.org/2000/svg">
<g clip-path="url(#clip0)">
<path d="M76.883 21.9946C76.6964 20.1622 75.3656 19.345 74.1167 19.345C73.5448 19.345 73.0896 19.5085 72.9146 19.5785L72.6694 19.6837L72.4594 19.8354C72.1674 20.057 71.6539 20.3605 71.1987 20.5239C71.1754 20.1504 71.187 19.6718 71.2453 19.275L71.257 19.205C71.5955 15.9834 70.9185 14.1042 69.2494 13.6256C68.9693 13.5439 68.6775 13.5089 68.3856 13.5089C67.3702 13.5089 66.4714 13.9991 65.8878 14.4193C65.3976 13.8008 64.5806 13.4506 63.5534 13.4506C62.0243 13.4506 60.7987 14.1627 60.3552 15.3064C60.3085 15.4232 60.2501 15.5982 60.1801 15.8316C59.2814 13.8473 57.4488 13.0887 55.7447 13.0887C54.1339 13.0887 52.5698 13.719 51.9861 14.1625C51.9628 14.1858 51.9278 14.1975 51.8928 14.2325C50.3637 15.3181 49.1731 16.6838 48.3327 18.3294C47.9242 16.9055 47.0255 15.5749 45.4147 14.571L45.3914 14.5477C45.3447 14.5245 45.3097 14.5012 45.263 14.4777C46.8388 11.6763 48.2394 7.9646 47.399 4.42793C46.5119 0.657788 44.2941 0.0974121 43.0452 0.0974121C42.5317 0.0974121 42.0065 0.190858 41.4695 0.3776L41.4345 0.389318L41.3994 0.400886C39.0533 1.32303 38.0262 2.7121 37.8043 3.03901C37.5709 3.38906 35.003 7.28765 34.3845 12.9954C34.3145 13.6256 34.2443 14.2793 34.1743 14.9329C33.8125 14.4193 33.2173 13.9525 32.2717 13.6606C31.98 13.5673 31.6765 13.5323 31.373 13.5323C30.0774 13.5323 29.0268 14.326 28.4666 14.8512L28.4548 14.8395C27.9646 14.1158 27.1827 13.684 26.3188 13.649H26.1088C24.7314 13.649 23.6343 14.256 22.8289 14.9447C22.3154 14.0458 21.3698 13.4856 20.261 13.4856C20.1676 13.4856 20.0859 13.4856 20.0041 13.4973H19.8174C18.2883 13.4973 17.0861 14.221 16.5959 15.4232C16.5609 15.5166 16.5142 15.6332 16.4675 15.7849C15.2653 14.291 13.7362 13.5906 11.6819 13.5906H11.4836C10.1995 13.6139 7.00133 14.151 5.04031 18.5631C4.73684 19.24 4.50337 19.9287 4.32835 20.6057C3.97699 20.4437 3.59463 20.3601 3.20775 20.3605C2.18059 20.3605 1.41034 20.9441 1.03686 21.4928C0.733382 21.9363 -0.235632 23.5119 0.243016 25.0528C0.499917 25.8814 1.09515 26.5118 1.93556 26.8386C2.67096 27.1305 3.60467 27.4105 4.30506 27.609C4.73684 28.5894 5.50724 29.7216 6.87288 30.7605C7.84174 31.4959 9.07892 31.8694 10.538 31.8694C12.9892 31.8694 15.3586 30.8072 15.6155 30.6905L15.7088 30.6439L15.7321 30.6205C16.199 31.1107 16.8177 31.4609 17.5996 31.6126C17.8331 31.6592 18.1366 31.6943 18.4868 31.6943C19.8174 31.6943 20.7395 31.0172 21.5917 29.745C22.2919 30.8422 23.5643 31.4607 25.0699 31.4607H25.0816C25.1634 31.4607 25.2451 31.5193 25.3385 31.5193C26.1321 31.5193 27.1242 31.2391 27.9531 29.9085C28.6416 31.1457 29.9022 31.8576 31.3964 31.8576C32.7269 31.8576 33.8825 31.3091 34.0926 31.2041L34.1393 31.1807C34.5828 30.9472 34.9564 30.7372 35.2482 30.5737C36.2403 31.099 37.746 31.6826 39.5902 31.6826C39.9054 31.6826 40.2205 31.6709 40.5357 31.636L40.6174 31.6243L40.6991 31.6126C44.6093 30.8422 47.1538 29.9085 48.6712 29.1964C49.7333 30.387 51.4259 31.5309 53.8421 31.7059C54.1106 31.7293 54.3906 31.7409 54.6591 31.7409C56.6434 31.7409 58.2308 31.1807 59.3981 30.562C59.7716 30.9589 60.2385 31.3207 60.8455 31.5659C61.2072 31.7176 61.5807 31.7876 61.9659 31.7876C64.3937 31.7876 65.526 28.8929 65.8412 27.9125L66.4247 26.3485C66.9384 26.8969 67.592 27.3405 68.4207 27.574C68.876 27.7024 69.3662 27.7723 69.8681 27.7723C72.5411 27.7723 75.1089 25.8815 75.5174 25.5664C76.2528 24.9595 77.0582 23.7104 76.883 21.9946Z" fill="white"/>
<path d="M52.3958 22.7856C52.3958 22.7856 52.0573 21.5951 53.318 19.2956C54.5669 17.0078 55.5474 18.2567 55.5474 18.2567C55.5474 18.2567 56.6212 19.4241 55.3957 21.1632C54.1701 22.914 52.3958 22.7857 52.3958 22.7857V22.7856ZM42.7662 24.4431C41.3306 28.2015 37.8406 26.6726 37.8406 26.6726C37.8406 26.6726 37.4437 25.3302 38.5759 21.5601C39.7082 17.8015 42.3693 19.2723 42.3693 19.2723C42.3693 19.2723 44.2019 20.6845 42.7662 24.4431ZM40.1634 8.69699C40.1634 8.69699 42.3343 3.036 42.8597 5.7907C43.3849 8.54526 38.3076 16.7392 38.3076 16.7392C38.3541 14.8951 40.1634 8.69714 40.1634 8.69714V8.69699ZM9.11514 22.7854C9.20844 19.1437 11.5895 17.5563 12.4184 18.35C13.247 19.1437 12.9436 20.8595 11.3795 21.9334C9.8271 23.0073 9.11514 22.7854 9.11514 22.7854ZM74.8999 22.1902C74.7832 20.9646 73.6745 21.4198 73.6745 21.4198C73.6745 21.4198 71.9002 22.7971 70.3363 22.6454C68.7837 22.4819 69.2741 19.0037 69.2741 19.0037C69.2741 19.0037 69.6124 15.8055 68.6903 15.537C67.7683 15.2686 66.636 16.3657 66.636 16.3657C66.636 16.3657 65.2238 17.9297 64.5582 19.9141L64.3716 19.9724C64.3716 19.9724 64.5817 16.4825 64.3366 15.6888C64.1499 15.2918 62.4691 15.3269 62.2006 16.0272C61.9204 16.7275 60.5781 21.6182 60.4848 23.6727C60.4848 23.6727 57.8585 25.902 55.559 26.2755C53.2597 26.6373 52.711 25.2016 52.711 25.2016C52.711 25.2016 58.9557 23.4625 58.7339 18.4783C58.5237 13.4943 53.7032 15.3384 53.1545 15.7471C52.6293 16.144 49.8163 17.8364 48.9876 22.5404C48.9642 22.7038 48.9059 23.4042 48.9059 23.4042C48.9059 23.4042 46.4896 25.0266 45.1474 25.4584C45.1474 25.4584 48.9059 19.132 44.3186 16.249C42.241 15.0001 40.5836 17.6263 40.5836 17.6263C40.5836 17.6263 46.7931 10.7163 45.4159 4.86841C44.7622 2.09057 43.3732 1.7871 42.0893 2.24231C40.1517 3.01271 39.4163 4.13316 39.4163 4.13316C39.4163 4.13316 36.9068 7.77485 36.3231 13.1908C35.7396 18.6068 34.8875 25.1432 34.8875 25.1432C34.8875 25.1432 33.6969 26.3105 32.5997 26.3688C31.5025 26.4272 31.9927 23.1006 31.9927 23.1006C31.9927 23.1006 32.8449 18.0231 32.7864 17.1711C32.7281 16.319 32.6697 15.8521 31.6543 15.5486C30.6504 15.2451 29.5415 16.5292 29.5415 16.5292C29.5415 16.5292 26.6352 20.9296 26.39 21.6065L26.2383 21.8867L26.0866 21.7C26.0866 21.7 28.1409 15.7003 26.18 15.6188C24.219 15.5253 22.9351 17.7546 22.9351 17.7546C22.9351 17.7546 20.7056 21.4898 20.6123 21.9101L20.4606 21.7232C20.4606 21.7232 21.3827 17.3812 21.196 16.3073C21.0092 15.2336 20.0054 15.4553 20.0054 15.4553C20.0054 15.4553 18.7215 15.3036 18.3828 16.1323C18.0443 16.961 16.8189 22.4354 16.6671 24.1743C16.6671 24.1743 13.4572 26.474 11.3445 26.4973C9.23187 26.5323 9.45362 25.1549 9.45362 25.1549C9.45362 25.1549 17.1922 22.5054 15.0796 17.2761C14.1342 15.9338 13.0253 15.5136 11.4729 15.537C9.90898 15.572 8.07627 16.5175 6.81565 19.3305C6.22042 20.6728 5.97523 21.945 5.97523 22.9139C5.97523 22.9139 4.52787 23.194 3.79262 22.5754C3.05722 21.9684 2.63702 22.5754 2.63702 22.5754C2.63702 22.5754 1.35311 24.4079 2.60201 24.898C3.85091 25.3884 5.78849 25.8436 5.78849 25.8436C5.96367 26.6373 6.48889 27.9329 8.01798 29.0885C10.3058 30.8276 14.7178 28.82 14.7178 28.82L16.527 27.7462C16.527 27.7462 16.5854 29.3687 17.9043 29.6137C19.2234 29.8589 19.7719 29.5904 22.0597 24.0345C23.402 21.1863 23.4953 21.338 23.4953 21.338L23.647 21.303C23.647 21.303 22.6083 26.7423 23.0051 28.2131C23.402 29.6839 25.1411 29.5321 25.1411 29.5321C25.1411 29.5321 26.0866 29.8705 26.857 27.1742C27.6274 24.478 29.0864 21.665 29.0864 21.665H29.2732C29.2732 21.665 28.6311 27.0809 29.6117 28.855C30.5921 30.6293 33.1249 29.3803 33.1249 29.3803C33.1249 29.3803 34.8992 28.4466 35.1792 28.1664C35.1792 28.1664 37.2803 29.9406 40.2567 29.6137C46.8983 28.3064 49.2561 26.5323 49.2561 26.5323C49.2561 26.5323 50.4 29.4153 53.9249 29.6837C57.9635 29.9872 60.1696 27.4427 60.1696 27.4427C60.1696 27.4427 60.1346 29.0885 61.5469 29.6722C62.9591 30.2557 63.9047 27.1742 63.9047 27.1742L66.2625 20.8595H66.4727C66.4727 20.8595 66.5894 24.8982 68.9237 25.5751C71.27 26.2405 74.2931 23.906 74.2931 23.906C74.2931 23.906 75.0284 23.4158 74.9001 22.1902" fill="#828282"/>
</g>
<defs>
<clipPath id="clip0">
<rect width="76.93" height="32" fill="white"/>
</clipPath>
</defs>
</svg>
