<svg width="38" height="32" viewBox="0 0 38 32" fill="none" xmlns="http://www.w3.org/2000/svg">
<g clip-path="url(#clip0)">
<path d="M18.8229 0.105957C4.71293 0.105957 0.0588379 12.4133 0.0588379 16.9133H11.498C11.498 16.9133 13.1187 11.0497 18.8229 11.0497C24.5271 11.0497 26.1485 16.9133 26.1485 16.9133H37.5211C37.5211 12.4127 32.9328 0.105957 18.8229 0.105957Z" fill="#828282"/>
<path d="M33.3285 19.8423H26.1485C26.1485 19.8423 24.8935 25.7059 18.8229 25.7059C12.7524 25.7059 11.4979 19.8423 11.4979 19.8423H4.44238C4.44238 21.3469 9.98044 31.9829 18.8927 31.9829C27.8049 31.9829 33.3285 23.2337 33.3285 19.8423Z" fill="#828282"/>
<path d="M18.79 23.3167C21.4465 23.3167 23.6 21.1632 23.6 18.5068C23.6 15.8503 21.4465 13.6968 18.79 13.6968C16.1335 13.6968 13.98 15.8503 13.98 18.5068C13.98 21.1632 16.1335 23.3167 18.79 23.3167Z" fill="#828282"/>
</g>
<defs>
<clipPath id="clip0">
<rect width="37.58" height="32" fill="white"/>
</clipPath>
</defs>
</svg>
