<svg width="54" height="32" viewBox="0 0 54 32" fill="none" xmlns="http://www.w3.org/2000/svg">
<g clip-path="url(#clip0)">
<path d="M15.1294 11.5949C15.1294 12.251 15.2004 12.7829 15.3243 13.173C15.4817 13.6118 15.6711 14.0384 15.8911 14.4494C15.9797 14.5912 16.015 14.733 16.015 14.8572C16.015 15.0344 15.9088 15.2118 15.6785 15.3891L14.5626 16.1337C14.4032 16.2401 14.2437 16.2933 14.1018 16.2933C13.9248 16.2933 13.7476 16.2046 13.5704 16.045C13.3318 15.7883 13.1182 15.5093 12.9328 15.2118C12.7556 14.9106 12.5784 14.5734 12.3836 14.1658C11.0019 15.7968 9.26574 16.6124 7.17557 16.6124C5.68767 16.6124 4.5007 16.1868 3.63262 15.336C2.76475 14.4847 2.32193 13.3501 2.32193 11.9319C2.32193 10.4249 2.85335 9.20161 3.93396 8.27968C5.01436 7.35774 6.44939 6.89678 8.27394 6.89678C8.87621 6.89678 9.49624 6.9499 10.1516 7.03858C10.8071 7.12726 11.4802 7.26906 12.1889 7.42865V6.13442C12.1889 4.78687 11.9053 3.84736 11.3561 3.29772C10.7894 2.74807 9.83269 2.48203 8.46871 2.48203C7.84868 2.48203 7.2111 2.55314 6.55555 2.71272C5.9002 2.8721 5.26241 3.06723 4.64238 3.3155C4.35901 3.43952 4.14649 3.51042 4.02236 3.54598C3.89843 3.58154 3.80983 3.5991 3.73899 3.5991C3.49093 3.5991 3.36701 3.42174 3.36701 3.04946V2.18065C3.36701 1.89704 3.40254 1.68433 3.49093 1.56031C3.57954 1.43607 3.73899 1.31204 3.98704 1.18802C4.60707 0.868855 5.35102 0.602816 6.21889 0.39011C7.08718 0.159626 8.00834 0.0533778 8.98258 0.0533778C11.0907 0.0533778 12.6319 0.531914 13.6239 1.4894C14.5981 2.44669 15.0942 3.90049 15.0942 5.85082V11.5949H15.1298H15.1294ZM7.93729 14.2898C8.522 14.2898 9.12426 14.1836 9.76184 13.9707C10.3996 13.758 10.9666 13.3679 11.4447 12.836C11.7283 12.4993 11.9408 12.127 12.047 11.7014C12.1533 11.276 12.2242 10.7617 12.2242 10.1589V9.41432C11.687 9.28345 11.1429 9.18283 10.5944 9.11293C10.0421 9.04273 9.486 9.00717 8.92929 9.00648C7.74231 9.00648 6.87444 9.23696 6.28994 9.7157C5.70523 10.1944 5.42186 10.8681 5.42186 11.7545C5.42186 12.5878 5.63439 13.2083 6.0772 13.6339C6.50247 14.0771 7.12249 14.2898 7.93729 14.2898ZM22.162 16.2046C21.8431 16.2046 21.6306 16.1515 21.4889 16.0272C21.3472 15.921 21.2231 15.6727 21.1169 15.336L16.9541 1.63121C16.8475 1.27649 16.7945 1.04601 16.7945 0.921979C16.7945 0.638371 16.9361 0.47858 17.2197 0.47858H18.9557C19.2921 0.47858 19.5226 0.531914 19.6465 0.65594C19.7882 0.762397 19.8946 1.01066 20.0008 1.34739L22.9768 13.0843L25.7402 1.34739C25.8289 0.992881 25.9352 0.762397 26.0767 0.65594C26.2186 0.549691 26.4666 0.47879 26.7855 0.47879H28.2026C28.539 0.47879 28.7695 0.531914 28.911 0.65594C29.0529 0.762397 29.1768 1.01066 29.2477 1.34739L32.0467 13.2261L35.1111 1.34739C35.2172 0.992881 35.3414 0.762397 35.4653 0.65594C35.607 0.549691 35.8373 0.47879 36.1562 0.47879H37.8035C38.0871 0.47879 38.2465 0.620593 38.2465 0.921979C38.2465 1.01066 38.2288 1.09934 38.211 1.20559C38.1932 1.31204 38.1579 1.45385 38.0871 1.64899L33.8177 15.3536C33.7116 15.7083 33.5877 15.9388 33.4458 16.045C33.3041 16.1515 33.0738 16.2224 32.7729 16.2224H31.2494C30.9128 16.2224 30.6825 16.1692 30.5406 16.045C30.3989 15.921 30.275 15.6905 30.2042 15.336L27.4582 3.90049L24.7303 15.318C24.6419 15.6727 24.5355 15.9032 24.3938 16.0272C24.2521 16.1515 24.0041 16.2046 23.6854 16.2046H22.1618H22.162ZM44.9249 16.6833C44.0038 16.6833 43.0826 16.5769 42.197 16.3642C41.3112 16.1515 40.6205 15.9208 40.1599 15.6552C39.8763 15.4954 39.6814 15.3182 39.6107 15.1586C39.5417 15.0021 39.5055 14.8332 39.5044 14.6621V13.758C39.5044 13.3857 39.646 13.2083 39.9119 13.2083C40.0203 13.2087 40.128 13.2267 40.2308 13.2616C40.3369 13.2972 40.4964 13.3679 40.6736 13.4388C41.2992 13.7142 41.9524 13.9222 42.622 14.0593C43.3159 14.2003 44.0222 14.2715 44.7302 14.272C45.8461 14.272 46.7142 14.0771 47.3165 13.6871C47.9187 13.297 48.2376 12.7298 48.2376 12.0028C48.2376 11.5064 48.0782 11.0986 47.7593 10.7617C47.4404 10.4249 46.8381 10.1235 45.9702 9.83973L43.4015 9.04203C42.1084 8.63419 41.1519 8.03142 40.5672 7.23351C39.9827 6.45338 39.6816 5.58478 39.6816 4.66284C39.6816 3.91827 39.841 3.26216 40.1599 2.69474C40.4786 2.12752 40.9039 1.63121 41.4353 1.24114C41.9667 0.833299 42.569 0.531914 43.2776 0.319208C43.986 0.106502 44.73 0.0178223 45.5094 0.0178223C45.8992 0.0178223 46.3067 0.0356 46.6964 0.0887242C47.1039 0.141848 47.4759 0.21275 47.8479 0.283652C48.2021 0.372332 48.5387 0.461012 48.8576 0.567469C49.1765 0.673718 49.4244 0.780175 49.6016 0.886424C49.8496 1.02844 50.0266 1.17024 50.133 1.32982C50.2394 1.47163 50.2925 1.66655 50.2925 1.91482V2.74807C50.2925 3.12036 50.1508 3.3155 49.885 3.3155C49.7433 3.3155 49.513 3.24438 49.2121 3.10258C48.2021 2.64161 47.0684 2.41113 45.8108 2.41113C44.801 2.41113 44.0038 2.57071 43.4546 2.90765C42.9056 3.24438 42.622 3.75869 42.622 4.48548C42.622 4.98201 42.7993 5.40742 43.1535 5.74436C43.5079 6.08109 44.1632 6.41803 45.1022 6.71942L47.6176 7.51733C48.893 7.92517 49.8141 8.49238 50.3633 9.21918C50.9125 9.94619 51.1783 10.7794 51.1783 11.7014C51.1783 12.4637 51.0186 13.1552 50.7175 13.758C50.3988 14.3607 49.9736 14.8926 49.4244 15.3182C48.8752 15.7614 48.2198 16.0806 47.4581 16.3111C46.6609 16.5593 45.8283 16.6833 44.9249 16.6833Z" fill="#828282"/>
<path d="M48.273 25.2996C42.4451 29.6079 33.9775 31.895 26.697 31.895C16.4934 31.895 7.29979 28.1186 0.355776 21.8424C-0.193409 21.3461 0.302488 20.6724 0.957832 21.0623C8.4688 25.4239 17.7335 28.0654 27.317 28.0654C33.7827 28.0654 40.8862 26.7181 47.4229 23.9523C48.3971 23.5089 49.2297 24.5906 48.273 25.2996ZM50.7 22.5338C49.9561 21.5766 45.7754 22.0729 43.88 22.3034C43.313 22.3745 43.2244 21.8779 43.7383 21.5057C47.0685 19.1653 52.5424 19.8391 53.1799 20.6191C53.8177 21.417 53.0027 26.8953 49.885 29.5193C49.4069 29.9271 48.9463 29.7144 49.1589 29.1825C49.8673 27.4271 51.444 23.4736 50.7 22.5338Z" fill="#828282"/>
</g>
<defs>
<clipPath id="clip0">
<rect width="53.5" height="32" fill="white"/>
</clipPath>
</defs>
</svg>
