<svg width="32" height="32" viewBox="0 0 32 32" fill="none" xmlns="http://www.w3.org/2000/svg">
<path d="M13.3333 16.6666C13.3333 16.2666 13.0667 16 12.6667 16H4.66667C4.26667 16 4 16.2666 4 16.6666V23.3333C4 23.7333 4.26667 24 4.66667 24.1333L12.6667 25.0666C13.0667 25.0666 13.3333 24.7999 13.3333 24.5333V16.6666ZM15.3333 16C14.9333 16 14.6667 16.2666 14.6667 16.6666V24.5333C14.6667 24.9333 14.9333 25.2 15.3333 25.3333L27.3333 26.6666C27.7333 26.6666 28 26.4 28 26.1333V16.8C28 16.4 27.7333 16.1333 27.3333 16.1333L15.3333 16ZM13.3333 6.26662C13.3333 5.86662 13.0667 5.59995 12.6667 5.73328L4.66667 6.66662C4.26667 6.66662 4 6.93328 4 7.33328V14C4 14.4 4.26667 14.6666 4.66667 14.6666H12.6667C13.0667 14.6666 13.3333 14.4 13.3333 14V6.26662ZM15.3333 5.46662C14.9333 5.46662 14.6667 5.86662 14.6667 6.26662V14.1333C14.6667 14.5333 14.9333 14.8 15.3333 14.8H27.3333C27.7333 14.8 28 14.5333 28 14.1333V4.79995C28 4.39995 27.7333 4.13328 27.3333 4.26662L15.3333 5.46662Z" fill="#828282"/>
</svg>
