<svg width="32" height="6" viewBox="0 0 32 6" fill="none" xmlns="http://www.w3.org/2000/svg">
<path d="M26.422 0.707909L26.485 4.29691H26.454L25.412 0.707909H23.704V5.22891H24.834L24.771 1.51491H24.802L25.917 5.22891H27.552V0.707909H26.422ZM4.891 0.707909L4.037 5.27591H5.271L5.901 1.11991H5.927L6.542 5.27591H7.766L6.922 0.707909H4.891ZM11.797 0.707909L11.234 4.19191H11.203L10.635 0.707909H8.77L8.681 5.27591H9.827L9.858 1.16691H9.868L10.634 5.27591H11.795L12.561 1.16691H12.592L12.623 5.27591H13.769L13.66 0.707909H11.797ZM2.109 3.97891C2.156 4.08291 2.14 4.23891 2.125 4.31191C2.094 4.46791 1.984 4.61891 1.682 4.61891C1.39 4.61891 1.224 4.45191 1.224 4.20791V3.76491H0V4.11391C0 5.13991 0.807 5.44191 1.667 5.44191C2.49 5.44191 3.177 5.15591 3.287 4.40591C3.35 4.00991 3.303 3.74991 3.287 3.65591C3.073 2.69191 1.329 2.42191 1.209 1.88491C1.19286 1.80404 1.19286 1.72078 1.209 1.63991C1.24 1.48891 1.344 1.33291 1.62 1.33291C1.896 1.33291 2.047 1.49991 2.047 1.74391V2.01991H3.193V1.70191C3.193 0.706908 2.292 0.555908 1.651 0.555908C0.838 0.555908 0.167 0.826908 0.047 1.56091C0.00564082 1.76447 0.0111121 1.97477 0.063 2.17591C0.245 3.11891 1.881 3.39491 2.11 3.97791L2.109 3.97891ZM16.979 3.97891C17.026 4.08291 17.01 4.22391 16.995 4.31191C16.964 4.46791 16.854 4.61891 16.552 4.61891C16.26 4.61891 16.094 4.45191 16.094 4.20791V3.76491H14.87V4.11391C14.87 5.12391 15.662 5.43191 16.521 5.43191C17.344 5.43191 18.016 5.15591 18.125 4.38991C18.188 3.99391 18.141 3.74891 18.125 3.63991C17.943 2.69191 16.214 2.40591 16.094 1.88491C16.0779 1.80404 16.0779 1.72078 16.094 1.63991C16.12 1.48891 16.229 1.33291 16.505 1.33291C16.765 1.33291 16.932 1.49991 16.932 1.74391V2.01991H18.062V1.70191C18.062 0.706908 17.177 0.555908 16.536 0.555908C15.723 0.555908 15.067 0.810908 14.947 1.56091C14.916 1.75891 14.916 1.94591 14.957 2.17591C15.145 3.11891 16.749 3.37891 16.978 3.97791L16.979 3.97891ZM20.828 4.58891C21.151 4.58891 21.239 4.37491 21.271 4.25591C21.287 4.20891 21.287 4.13091 21.287 4.08391V0.708908H22.448V3.99491C22.448 4.08391 22.448 4.25491 22.432 4.29691C22.359 5.15591 21.682 5.43191 20.843 5.43191C20.004 5.43191 19.333 5.15591 19.254 4.29691C19.254 4.25491 19.238 4.08291 19.238 3.99491V0.708908H20.399V4.08391C20.399 4.14691 20.399 4.20891 20.415 4.25591C20.415 4.37591 20.509 4.58891 20.826 4.58891H20.828ZM30.365 4.54191C30.704 4.54191 30.808 4.32791 30.839 4.20891C30.855 4.16191 30.855 4.08391 30.855 4.04191V3.38091H30.381V2.70891H32.001V3.93291C32.001 4.02691 32.001 4.08391 31.985 4.23991C31.907 5.07891 31.188 5.36991 30.381 5.36991C29.568 5.36991 28.855 5.07791 28.777 4.23991C28.761 4.08391 28.761 4.02591 28.761 3.93291V2.00591C28.761 1.93291 28.777 1.77691 28.777 1.70391C28.881 0.844909 29.569 0.568909 30.381 0.568909C31.188 0.568909 31.891 0.844909 31.985 1.70391C32.001 1.83891 32.001 2.00591 32.001 2.00591V2.16191H30.855V1.90191C30.855 1.90191 30.855 1.79291 30.839 1.72991C30.823 1.62591 30.73 1.39691 30.381 1.39691C30.042 1.39691 29.954 1.61091 29.923 1.72991C29.907 1.79291 29.907 1.87091 29.907 1.94891V4.04291C29.907 4.09991 29.907 4.16291 29.923 4.20991C29.923 4.32991 30.043 4.54291 30.366 4.54291L30.365 4.54191Z" fill="#828282"/>
</svg>
